# xmcd CD database file
#
# Track frame offsets:
#	150
#	27092
#	48787
#	70424
#	91284
#	113901
#	135256
#	154858
#	176073
#	195523
#
# Disc length: 2897 seconds
#
# Revision: 0
# Processed by: cddbd v1.5.1PL0 Copyright (c) Steve Scherf et al.
# Submitted via: CDex 1.51
#
DISCID=7b0b4f0a
DTITLE=aiko - カップリング
DYEAR=2005
DGENRE=J-Pop
TTITLE0=キスでおこして
TTITLE1=あの子へ
TTITLE2=アスパラ
TTITLE3=脱出
TTITLE4=密かなさよならの仕方
TTITLE5=前ならえ。
TTITLE6=アイツを振り向かせる方法
TTITLE7=more and more
TTITLE8=恋人
TTITLE9=二時頃
EXTD=YEAR: 2005
EXTT0=
EXTT1=
EXTT2=
EXTT3=
EXTT4=
EXTT5=
EXTT6=
EXTT7=
EXTT8=
EXTT9=
PLAYORDER=
